<svg xmlns="http://www.w3.org/2000/svg" xmlns:xlink="http://www.w3.org/1999/xlink" width="270" zoomAndPan="magnify" viewBox="0 0 202.5 67.499998" height="90" preserveAspectRatio="xMidYMid meet" version="1.0"><defs><g/><clipPath id="bd8e84ccfb"><path d="M 7.195312 6.699219 L 34 6.699219 L 34 47 L 7.195312 47 Z M 7.195312 6.699219 " clip-rule="nonzero"/></clipPath><clipPath id="cef53c6bae"><path d="M 34 20 L 60.800781 20 L 60.800781 60.304688 L 34 60.304688 Z M 34 20 " clip-rule="nonzero"/></clipPath></defs><g clip-path="url(#bd8e84ccfb)"><path fill="#70adba" d="M 34 20.101562 L 34 6.699219 L 7.195312 6.699219 L 7.195312 46.914062 L 34 46.914062 L 34 33.5 L 20.597656 33.5 L 20.597656 20.101562 Z M 34 20.101562 " fill-opacity="1" fill-rule="evenodd"/></g><g clip-path="url(#cef53c6bae)"><path fill="#ffffff" d="M 34 46.914062 L 34 60.316406 L 60.8125 60.316406 L 60.8125 20.101562 L 34 20.101562 L 34 33.5 L 47.410156 33.5 L 47.410156 46.914062 Z M 34 46.914062 " fill-opacity="1" fill-rule="evenodd"/></g><g fill="#ffffff" fill-opacity="1"><g transform="translate(65.719763, 36.296782)"><g><path d="M 9.390625 0.390625 C 6.554688 0.390625 4.546875 -0.351562 3.359375 -1.84375 C 2.171875 -3.332031 1.578125 -5.484375 1.578125 -8.296875 L 1.578125 -17.671875 C 1.578125 -20.546875 2.164062 -22.71875 3.34375 -24.1875 C 4.519531 -25.65625 6.535156 -26.390625 9.390625 -26.390625 C 12.109375 -26.390625 14.035156 -25.734375 15.171875 -24.421875 C 16.304688 -23.117188 16.875 -21.265625 16.875 -18.859375 L 16.875 -16.609375 L 11.25 -16.609375 L 11.25 -19.21875 C 11.25 -20.226562 11.140625 -21 10.921875 -21.53125 C 10.710938 -22.070312 10.203125 -22.34375 9.390625 -22.34375 C 8.566406 -22.34375 8.023438 -22.054688 7.765625 -21.484375 C 7.515625 -20.921875 7.390625 -20.132812 7.390625 -19.125 L 7.390625 -6.875 C 7.390625 -5.84375 7.523438 -5.054688 7.796875 -4.515625 C 8.066406 -3.972656 8.597656 -3.703125 9.390625 -3.703125 C 10.179688 -3.703125 10.6875 -3.972656 10.90625 -4.515625 C 11.132812 -5.054688 11.25 -5.84375 11.25 -6.875 L 11.25 -9.609375 L 16.875 -9.609375 L 16.875 -7.359375 C 16.875 -4.921875 16.304688 -3.019531 15.171875 -1.65625 C 14.035156 -0.289062 12.109375 0.390625 9.390625 0.390625 Z M 9.390625 0.390625 "/></g></g></g><g fill="#ffffff" fill-opacity="1"><g transform="translate(83.808451, 36.296782)"><g><path d="M 7.75 0.328125 C 5.707031 0.328125 4.113281 -0.1875 2.96875 -1.21875 C 1.820312 -2.25 1.25 -3.757812 1.25 -5.75 L 1.25 -12.828125 C 1.25 -14.816406 1.820312 -16.328125 2.96875 -17.359375 C 4.113281 -18.390625 5.707031 -18.90625 7.75 -18.90625 C 9.78125 -18.90625 11.375 -18.382812 12.53125 -17.34375 C 13.6875 -16.300781 14.265625 -14.796875 14.265625 -12.828125 L 14.265625 -5.75 C 14.265625 -3.78125 13.6875 -2.273438 12.53125 -1.234375 C 11.375 -0.191406 9.78125 0.328125 7.75 0.328125 Z M 7.78125 -3.15625 C 8.269531 -3.15625 8.609375 -3.34375 8.796875 -3.71875 C 8.992188 -4.09375 9.09375 -4.65625 9.09375 -5.40625 L 9.09375 -13.171875 C 9.09375 -13.921875 8.992188 -14.484375 8.796875 -14.859375 C 8.609375 -15.234375 8.269531 -15.421875 7.78125 -15.421875 C 7.28125 -15.421875 6.925781 -15.226562 6.71875 -14.84375 C 6.519531 -14.457031 6.421875 -13.898438 6.421875 -13.171875 L 6.421875 -5.40625 C 6.421875 -4.65625 6.519531 -4.09375 6.71875 -3.71875 C 6.925781 -3.34375 7.28125 -3.15625 7.78125 -3.15625 Z M 7.78125 -3.15625 "/></g></g></g><g fill="#ffffff" fill-opacity="1"><g transform="translate(99.326815, 36.296782)"><g><path d="M 5.65625 0.328125 C 4.257812 0.328125 3.191406 -0.15625 2.453125 -1.125 C 1.710938 -2.09375 1.34375 -3.519531 1.34375 -5.40625 L 1.34375 -13.078125 C 1.34375 -14.859375 1.710938 -16.273438 2.453125 -17.328125 C 3.191406 -18.378906 4.257812 -18.90625 5.65625 -18.90625 C 6.96875 -18.90625 8.191406 -18.410156 9.328125 -17.421875 L 9.328125 -26.03125 L 14.5625 -26.03125 L 14.5625 0 L 9.328125 0 L 9.328125 -1.453125 C 8.097656 -0.265625 6.875 0.328125 5.65625 0.328125 Z M 7.9375 -3.015625 C 8.34375 -3.015625 8.804688 -3.175781 9.328125 -3.5 L 9.328125 -15.234375 C 8.804688 -15.515625 8.351562 -15.65625 7.96875 -15.65625 C 7.519531 -15.65625 7.179688 -15.46875 6.953125 -15.09375 C 6.734375 -14.71875 6.625 -14.226562 6.625 -13.625 L 6.625 -5.078125 C 6.625 -4.453125 6.726562 -3.953125 6.9375 -3.578125 C 7.15625 -3.203125 7.488281 -3.015625 7.9375 -3.015625 Z M 7.9375 -3.015625 "/></g></g></g><g fill="#ffffff" fill-opacity="1"><g transform="translate(115.487754, 36.296782)"><g><path d="M 7.71875 0.328125 C 5.675781 0.328125 4.085938 -0.210938 2.953125 -1.296875 C 1.816406 -2.378906 1.25 -3.90625 1.25 -5.875 L 1.25 -12.703125 C 1.25 -14.671875 1.816406 -16.195312 2.953125 -17.28125 C 4.085938 -18.363281 5.675781 -18.90625 7.71875 -18.90625 C 9.769531 -18.90625 11.3125 -18.378906 12.34375 -17.328125 C 13.375 -16.273438 13.890625 -14.734375 13.890625 -12.703125 L 13.890625 -8.96875 L 6.421875 -8.96875 L 6.421875 -5.40625 C 6.421875 -4.070312 6.851562 -3.40625 7.71875 -3.40625 C 8.613281 -3.40625 9.0625 -4.003906 9.0625 -5.203125 L 9.0625 -7.171875 L 13.890625 -7.171875 L 13.890625 -5.375 C 13.890625 -3.507812 13.347656 -2.09375 12.265625 -1.125 C 11.179688 -0.15625 9.664062 0.328125 7.71875 0.328125 Z M 9.0625 -11.40625 L 9.0625 -13.28125 C 9.0625 -13.957031 8.9375 -14.441406 8.6875 -14.734375 C 8.445312 -15.023438 8.113281 -15.171875 7.6875 -15.171875 C 7.28125 -15.171875 6.96875 -15.007812 6.75 -14.6875 C 6.53125 -14.363281 6.421875 -13.796875 6.421875 -12.984375 L 6.421875 -11.40625 Z M 9.0625 -11.40625 "/></g></g></g><g fill="#ffffff" fill-opacity="1"><g transform="translate(130.588436, 36.296782)"><g><path d="M 9.390625 0.390625 C 6.554688 0.390625 4.546875 -0.351562 3.359375 -1.84375 C 2.171875 -3.332031 1.578125 -5.484375 1.578125 -8.296875 L 1.578125 -17.671875 C 1.578125 -20.546875 2.164062 -22.71875 3.34375 -24.1875 C 4.519531 -25.65625 6.535156 -26.390625 9.390625 -26.390625 C 12.109375 -26.390625 14.035156 -25.734375 15.171875 -24.421875 C 16.304688 -23.117188 16.875 -21.265625 16.875 -18.859375 L 16.875 -16.609375 L 11.25 -16.609375 L 11.25 -19.21875 C 11.25 -20.226562 11.140625 -21 10.921875 -21.53125 C 10.710938 -22.070312 10.203125 -22.34375 9.390625 -22.34375 C 8.566406 -22.34375 8.023438 -22.054688 7.765625 -21.484375 C 7.515625 -20.921875 7.390625 -20.132812 7.390625 -19.125 L 7.390625 -6.875 C 7.390625 -5.84375 7.523438 -5.054688 7.796875 -4.515625 C 8.066406 -3.972656 8.597656 -3.703125 9.390625 -3.703125 C 10.179688 -3.703125 10.6875 -3.972656 10.90625 -4.515625 C 11.132812 -5.054688 11.25 -5.84375 11.25 -6.875 L 11.25 -9.609375 L 16.875 -9.609375 L 16.875 -7.359375 C 16.875 -4.921875 16.304688 -3.019531 15.171875 -1.65625 C 14.035156 -0.289062 12.109375 0.390625 9.390625 0.390625 Z M 9.390625 0.390625 "/></g></g></g><g fill="#ffffff" fill-opacity="1"><g transform="translate(148.677124, 36.296782)"><g><path d="M 1.703125 -18.578125 L 6.9375 -18.578125 L 6.9375 -15.484375 C 7.582031 -16.617188 8.203125 -17.453125 8.796875 -17.984375 C 9.398438 -18.523438 10.109375 -18.796875 10.921875 -18.796875 C 11.222656 -18.796875 11.492188 -18.765625 11.734375 -18.703125 L 11.734375 -13.5 C 11.085938 -13.757812 10.519531 -13.890625 10.03125 -13.890625 C 8.894531 -13.890625 7.863281 -13.285156 6.9375 -12.078125 L 6.9375 0 L 1.703125 0 Z M 1.703125 -18.578125 "/></g></g></g><g fill="#ffffff" fill-opacity="1"><g transform="translate(160.982578, 36.296782)"><g><path d="M 5.46875 0.328125 C 4.5625 0.328125 3.78125 0.109375 3.125 -0.328125 C 2.476562 -0.773438 1.988281 -1.34375 1.65625 -2.03125 C 1.320312 -2.726562 1.15625 -3.453125 1.15625 -4.203125 C 1.15625 -5.640625 1.519531 -6.816406 2.25 -7.734375 C 2.976562 -8.660156 3.847656 -9.378906 4.859375 -9.890625 C 5.878906 -10.410156 7.195312 -10.945312 8.8125 -11.5 L 8.8125 -13.375 C 8.8125 -13.90625 8.726562 -14.3125 8.5625 -14.59375 C 8.40625 -14.875 8.125 -15.015625 7.71875 -15.015625 C 7.3125 -15.015625 7.019531 -14.882812 6.84375 -14.625 C 6.675781 -14.363281 6.582031 -14 6.5625 -13.53125 L 6.421875 -12.1875 L 1.546875 -12.375 C 1.628906 -14.601562 2.21875 -16.25 3.3125 -17.3125 C 4.40625 -18.375 6.035156 -18.90625 8.203125 -18.90625 C 10.015625 -18.90625 11.40625 -18.394531 12.375 -17.375 C 13.34375 -16.351562 13.828125 -15 13.828125 -13.3125 L 13.828125 -4.625 C 13.828125 -2.738281 13.929688 -1.195312 14.140625 0 L 9.453125 0 C 9.253906 -1.4375 9.113281 -2.316406 9.03125 -2.640625 C 8.769531 -1.773438 8.335938 -1.0625 7.734375 -0.5 C 7.140625 0.0507812 6.382812 0.328125 5.46875 0.328125 Z M 7.328125 -3.21875 C 7.859375 -3.21875 8.351562 -3.523438 8.8125 -4.140625 L 8.8125 -9.21875 C 7.84375 -8.664062 7.109375 -8.082031 6.609375 -7.46875 C 6.117188 -6.863281 5.875 -6.117188 5.875 -5.234375 C 5.875 -4.617188 6.003906 -4.128906 6.265625 -3.765625 C 6.523438 -3.398438 6.878906 -3.21875 7.328125 -3.21875 Z M 7.328125 -3.21875 "/></g></g></g><g fill="#ffffff" fill-opacity="1"><g transform="translate(176.276038, 36.296782)"><g><path d="M 2.3125 -15.046875 L 0.546875 -15.046875 L 0.546875 -18.578125 L 2.3125 -18.578125 L 2.3125 -19.953125 C 2.3125 -21.203125 2.425781 -22.207031 2.65625 -22.96875 C 2.894531 -23.726562 3.382812 -24.320312 4.125 -24.75 C 4.863281 -25.175781 5.953125 -25.390625 7.390625 -25.390625 C 8.296875 -25.390625 9.132812 -25.335938 9.90625 -25.234375 L 9.90625 -21.34375 C 9.425781 -21.445312 9.050781 -21.5 8.78125 -21.5 C 7.957031 -21.5 7.546875 -21.019531 7.546875 -20.0625 L 7.546875 -18.578125 L 9.90625 -18.578125 L 9.90625 -15.046875 L 7.546875 -15.046875 L 7.546875 0 L 2.3125 0 Z M 2.3125 -15.046875 "/></g></g></g><g fill="#ffffff" fill-opacity="1"><g transform="translate(186.557354, 36.296782)"><g><path d="M 7.390625 0.1875 C 6.015625 0.1875 4.953125 -0.0078125 4.203125 -0.40625 C 3.453125 -0.800781 2.925781 -1.375 2.625 -2.125 C 2.332031 -2.875 2.1875 -3.847656 2.1875 -5.046875 L 2.1875 -15.140625 L 0.390625 -15.140625 L 0.390625 -18.578125 L 2.1875 -18.578125 L 2.1875 -24.234375 L 7.484375 -24.234375 L 7.484375 -18.578125 L 10.125 -18.578125 L 10.125 -15.140625 L 7.484375 -15.140625 L 7.484375 -5.5625 C 7.484375 -5.039062 7.628906 -4.65625 7.921875 -4.40625 C 8.210938 -4.164062 8.613281 -4.046875 9.125 -4.046875 C 9.550781 -4.046875 10.023438 -4.085938 10.546875 -4.171875 L 10.546875 -0.0625 C 9.515625 0.101562 8.460938 0.1875 7.390625 0.1875 Z M 7.390625 0.1875 "/></g></g></g><g fill="#ffffff" fill-opacity="1"><g transform="translate(86.321066, 57.142369)"><g><path d="M 0.71875 -16.015625 L 2.5625 -16.015625 L 4.296875 -4.5 L 6.4375 -15.953125 L 8.03125 -15.953125 L 10.203125 -4.453125 L 11.875 -16.015625 L 13.703125 -16.015625 L 11.125 0 L 9.5 0 L 7.28125 -11.859375 L 5.015625 0 L 3.328125 0 Z M 0.71875 -16.015625 "/></g></g></g><g fill="#ffffff" fill-opacity="1"><g transform="translate(100.720351, 57.142369)"><g><path d="M 1.25 -16.015625 L 7.453125 -16.015625 L 7.453125 -14.34375 L 3.484375 -14.34375 L 3.484375 -9.046875 L 6.703125 -9.046875 L 6.703125 -7.46875 L 3.484375 -7.46875 L 3.484375 -1.59375 L 7.484375 -1.59375 L 7.484375 0 L 1.25 0 Z M 1.25 -16.015625 "/></g></g></g><g fill="#ffffff" fill-opacity="1"><g transform="translate(108.759453, 57.142369)"><g><path d="M 1.25 -16.015625 L 4.921875 -16.015625 C 6.367188 -16.015625 7.441406 -15.6875 8.140625 -15.03125 C 8.835938 -14.375 9.1875 -13.363281 9.1875 -12 C 9.1875 -9.957031 8.421875 -8.832031 6.890625 -8.625 C 7.847656 -8.394531 8.539062 -7.945312 8.96875 -7.28125 C 9.40625 -6.613281 9.625 -5.707031 9.625 -4.5625 C 9.625 -3.125 9.285156 -2.003906 8.609375 -1.203125 C 7.929688 -0.398438 6.898438 0 5.515625 0 L 1.25 0 Z M 4.796875 -9.328125 C 5.722656 -9.328125 6.363281 -9.523438 6.71875 -9.921875 C 7.070312 -10.328125 7.25 -11.019531 7.25 -12 C 7.25 -12.707031 7.140625 -13.226562 6.921875 -13.5625 C 6.710938 -13.90625 6.390625 -14.117188 5.953125 -14.203125 C 5.515625 -14.296875 4.867188 -14.34375 4.015625 -14.34375 L 3.484375 -14.34375 L 3.484375 -9.328125 Z M 4.984375 -1.59375 C 5.640625 -1.59375 6.148438 -1.695312 6.515625 -1.90625 C 6.878906 -2.113281 7.128906 -2.425781 7.265625 -2.84375 C 7.410156 -3.269531 7.484375 -3.84375 7.484375 -4.5625 C 7.484375 -5.59375 7.269531 -6.359375 6.84375 -6.859375 C 6.425781 -7.367188 5.742188 -7.625 4.796875 -7.625 L 3.484375 -7.625 L 3.484375 -1.59375 Z M 4.984375 -1.59375 "/></g></g></g><g fill="#ffffff" fill-opacity="1"><g transform="translate(119.109554, 57.142369)"><g/></g></g><g fill="#ffffff" fill-opacity="1"><g transform="translate(123.632788, 57.142369)"><g><path d="M 1.25 -16.015625 L 4.71875 -16.015625 C 6.445312 -16.015625 7.671875 -15.617188 8.390625 -14.828125 C 9.109375 -14.035156 9.46875 -12.800781 9.46875 -11.125 L 9.46875 -5.234375 C 9.46875 -3.472656 9.113281 -2.160156 8.40625 -1.296875 C 7.707031 -0.429688 6.539062 0 4.90625 0 L 1.25 0 Z M 4.75 -1.59375 C 5.519531 -1.59375 6.078125 -1.742188 6.421875 -2.046875 C 6.773438 -2.359375 6.992188 -2.773438 7.078125 -3.296875 C 7.171875 -3.816406 7.21875 -4.601562 7.21875 -5.65625 L 7.21875 -10.84375 C 7.21875 -11.757812 7.160156 -12.457031 7.046875 -12.9375 C 6.929688 -13.414062 6.695312 -13.769531 6.34375 -14 C 5.988281 -14.226562 5.4375 -14.34375 4.6875 -14.34375 L 3.484375 -14.34375 L 3.484375 -1.59375 Z M 4.75 -1.59375 "/></g></g></g><g fill="#ffffff" fill-opacity="1"><g transform="translate(134.042143, 57.142369)"><g><path d="M 1.25 -16.015625 L 7.453125 -16.015625 L 7.453125 -14.34375 L 3.484375 -14.34375 L 3.484375 -9.046875 L 6.703125 -9.046875 L 6.703125 -7.46875 L 3.484375 -7.46875 L 3.484375 -1.59375 L 7.484375 -1.59375 L 7.484375 0 L 1.25 0 Z M 1.25 -16.015625 "/></g></g></g><g fill="#ffffff" fill-opacity="1"><g transform="translate(142.081245, 57.142369)"><g><path d="M 5.015625 0.171875 C 3.671875 0.171875 2.644531 -0.238281 1.9375 -1.0625 C 1.238281 -1.894531 0.847656 -3.035156 0.765625 -4.484375 L 2.75 -5.015625 C 2.8125 -3.992188 3.007812 -3.164062 3.34375 -2.53125 C 3.6875 -1.894531 4.242188 -1.578125 5.015625 -1.578125 C 5.597656 -1.578125 6.035156 -1.738281 6.328125 -2.0625 C 6.628906 -2.382812 6.78125 -2.847656 6.78125 -3.453125 C 6.78125 -4.117188 6.640625 -4.664062 6.359375 -5.09375 C 6.085938 -5.53125 5.648438 -6.015625 5.046875 -6.546875 L 2.359375 -8.921875 C 1.816406 -9.390625 1.421875 -9.894531 1.171875 -10.4375 C 0.929688 -10.988281 0.8125 -11.660156 0.8125 -12.453125 C 0.8125 -13.628906 1.144531 -14.539062 1.8125 -15.1875 C 2.488281 -15.832031 3.40625 -16.15625 4.5625 -16.15625 C 5.832031 -16.15625 6.789062 -15.816406 7.4375 -15.140625 C 8.082031 -14.460938 8.46875 -13.421875 8.59375 -12.015625 L 6.703125 -11.5 C 6.640625 -12.4375 6.457031 -13.15625 6.15625 -13.65625 C 5.863281 -14.164062 5.332031 -14.421875 4.5625 -14.421875 C 4 -14.421875 3.566406 -14.273438 3.265625 -13.984375 C 2.960938 -13.691406 2.8125 -13.253906 2.8125 -12.671875 C 2.8125 -12.191406 2.890625 -11.789062 3.046875 -11.46875 C 3.203125 -11.144531 3.472656 -10.820312 3.859375 -10.5 L 6.5625 -8.125 C 7.257812 -7.5 7.816406 -6.820312 8.234375 -6.09375 C 8.648438 -5.375 8.859375 -4.554688 8.859375 -3.640625 C 8.859375 -2.460938 8.5 -1.53125 7.78125 -0.84375 C 7.070312 -0.164062 6.148438 0.171875 5.015625 0.171875 Z M 5.015625 0.171875 "/></g></g></g><g fill="#ffffff" fill-opacity="1"><g transform="translate(151.423992, 57.142369)"><g><path d="M 1.359375 -16.015625 L 3.5625 -16.015625 L 3.5625 0 L 1.359375 0 Z M 1.359375 -16.015625 "/></g></g></g><g fill="#ffffff" fill-opacity="1"><g transform="translate(156.322513, 57.142369)"><g><path d="M 5.0625 0.203125 C 3.613281 0.203125 2.566406 -0.253906 1.921875 -1.171875 C 1.273438 -2.085938 0.953125 -3.445312 0.953125 -5.25 L 0.953125 -10.609375 C 0.953125 -11.847656 1.078125 -12.863281 1.328125 -13.65625 C 1.585938 -14.457031 2.03125 -15.070312 2.65625 -15.5 C 3.28125 -15.9375 4.140625 -16.15625 5.234375 -16.15625 C 6.710938 -16.15625 7.773438 -15.773438 8.421875 -15.015625 C 9.078125 -14.265625 9.40625 -13.085938 9.40625 -11.484375 L 9.40625 -10.890625 L 7.3125 -10.890625 L 7.3125 -11.390625 C 7.3125 -12.148438 7.265625 -12.738281 7.171875 -13.15625 C 7.078125 -13.570312 6.878906 -13.882812 6.578125 -14.09375 C 6.285156 -14.300781 5.851562 -14.40625 5.28125 -14.40625 C 4.65625 -14.40625 4.191406 -14.265625 3.890625 -13.984375 C 3.585938 -13.703125 3.394531 -13.320312 3.3125 -12.84375 C 3.226562 -12.375 3.1875 -11.742188 3.1875 -10.953125 L 3.1875 -5.015625 C 3.1875 -3.796875 3.332031 -2.914062 3.625 -2.375 C 3.925781 -1.84375 4.5 -1.578125 5.34375 -1.578125 C 6.164062 -1.578125 6.734375 -1.867188 7.046875 -2.453125 C 7.359375 -3.035156 7.515625 -3.960938 7.515625 -5.234375 L 7.515625 -6.34375 L 5.46875 -6.34375 L 5.46875 -7.921875 L 9.53125 -7.921875 L 9.53125 0 L 8.125 0 L 7.90625 -1.84375 C 7.40625 -0.476562 6.457031 0.203125 5.0625 0.203125 Z M 5.0625 0.203125 "/></g></g></g><g fill="#ffffff" fill-opacity="1"><g transform="translate(166.889884, 57.142369)"><g><path d="M 1.25 -16.015625 L 2.765625 -16.015625 L 7.3125 -5.375 L 7.3125 -16.015625 L 9.171875 -16.015625 L 9.171875 0 L 7.75 0 L 3.140625 -10.9375 L 3.140625 0 L 1.25 0 Z M 1.25 -16.015625 "/></g></g></g></svg>